#Comment line ignore any data following # character 
#Hierarchical Translation and Rotation (.htr) file 
[Header]	
#Header keywords are followed by a single value 
FileType HTR		#Single word string
DataType HTRS		#Translation followed by rotation and scale data
FileVersion 1		#integer
NumSegments 84		#integer
NumFrames 2		#integer
DataFrameRate 30		#integer, data frame rate in this file
EulerRotationOrder ZYX
CalibrationUnits mm
RotationUnits Degrees
GlobalAxisofGravity Y
BoneLengthAxis Y
ScaleFactor 1.00
[SegmentNames&Hierarchy]
#CHILD	PARENT
MASTER GLOBAL
root MASTER
chest root
L_mid_tent01 root
R_mid_tent01 root
spine01 root
Bip01_Neck chest
L_humerus chest
R_humerus chest
weapon_bone chest
Bip01_Head Bip01_Neck
eye_left_bone Bip01_Head
eye_right_bone Bip01_Head
L_forearm L_humerus
L_front_hand L_forearm
L_weapon_bone L_forearm
L_front_hand01_01 L_front_hand
L_front_hand02_01 L_front_hand
L_front_hand03_01 L_front_hand
L_front_hand01_02 L_front_hand01_01
L_front_hand02_02 L_front_hand02_01
L_front_hand03_02 L_front_hand03_01
R_forearm R_humerus
R_front_hand R_forearm
R_weapon_bone R_forearm
R_front_hand01_01 R_front_hand
R_front_hand02_01 R_front_hand
R_front_hand03_01 R_front_hand
R_front_hand01_02 R_front_hand01_01
R_front_hand02_02 R_front_hand02_01
R_front_hand03_02 R_front_hand03_01
null_rope01_connect L_mid_tent01
Rope1_Seg01 null_rope01_connect
Rope1_Seg02 Rope1_Seg01
Rope1_Seg03 Rope1_Seg02
Rope1_Seg04 Rope1_Seg03
Rope1_Seg05 Rope1_Seg04
Rope1_Seg06 Rope1_Seg05
Rope1_Seg07 Rope1_Seg06
Rope1_Seg09 Rope1_Seg07
L_mid_hand01 Rope1_Seg09
L_mid_hand02 Rope1_Seg09
L_mid_hand03 Rope1_Seg09
null_rope02_connect R_mid_tent01
Rope2_Seg01 null_rope02_connect
Rope2_Seg02 Rope2_Seg01
Rope2_Seg03 Rope2_Seg02
Rope2_Seg04 Rope2_Seg03
Rope2_Seg05 Rope2_Seg04
Rope2_Seg06 Rope2_Seg05
Rope2_Seg07 Rope2_Seg06
Rope2_Seg09 Rope2_Seg07
R_mid_hand01 Rope2_Seg09
R_mid_hand02 Rope2_Seg09
R_mid_hand03 Rope2_Seg09
spine02 spine01
spine03 spine02
pelvis spine03
null_rope03_connect pelvis
null_rope04_connect pelvis
Rope3_Seg01 null_rope03_connect
Rope3_Seg02 Rope3_Seg01
Rope3_Seg03 Rope3_Seg02
Rope3_Seg04 Rope3_Seg03
Rope3_Seg05 Rope3_Seg04
Rope3_Seg06 Rope3_Seg05
Rope3_Seg07 Rope3_Seg06
Rope3_Seg08 Rope3_Seg07
Rope3_Seg09 Rope3_Seg08
R_rear_hand01 Rope3_Seg09
R_rear_hand02 Rope3_Seg09
R_rear_hand03 Rope3_Seg09
Rope4_Seg01 null_rope04_connect
Rope4_Seg02 Rope4_Seg01
Rope4_Seg03 Rope4_Seg02
Rope4_Seg04 Rope4_Seg03
Rope4_Seg05 Rope4_Seg04
Rope4_Seg06 Rope4_Seg05
Rope4_Seg07 Rope4_Seg06
Rope4_Seg08 Rope4_Seg07
Rope4_Seg09 Rope4_Seg08
L_rear_hand01 Rope4_Seg09
L_rear_hand02 Rope4_Seg09
L_rear_hand03 Rope4_Seg09
[BasePosition]
#SegmentName Tx, Ty, Tz, Rx, Ry, Rz, BoneLength
MASTER 0.000000 0.000000 0.000000 -90.000000 0.000000 0.000000 10.000000 
root 0.000000 0.000000 0.000000 0.000000 0.000000 0.000000 10.000000 
chest 0.000000 0.000000 0.000000 0.000000 0.000000 0.000000 10.000000 
L_mid_tent01 0.000000 0.000000 0.000000 0.000000 0.000000 0.000000 10.000000 
R_mid_tent01 0.000000 0.000000 0.000000 0.000000 0.000000 0.000000 10.000000 
spine01 0.000000 0.000000 0.000000 0.000000 0.000000 0.000000 10.000000 
Bip01_Neck 0.000000 0.000000 0.000000 0.000000 0.000000 0.000000 10.000000 
L_humerus 0.000000 0.000000 0.000000 0.000000 0.000000 0.000000 10.000000 
R_humerus 0.000000 0.000000 0.000000 0.000000 0.000000 0.000000 10.000000 
weapon_bone 0.000000 0.000000 0.000000 0.000000 0.000000 0.000000 10.000000 
Bip01_Head 0.000000 0.000000 0.000000 0.000000 0.000000 0.000000 10.000000 
eye_left_bone 0.000000 0.000000 0.000000 0.000000 0.000000 0.000000 10.000000 
eye_right_bone 0.000000 0.000000 0.000000 0.000000 0.000000 0.000000 10.000000 
L_forearm 0.000000 0.000000 0.000000 0.000000 0.000000 0.000000 10.000000 
L_front_hand 0.000000 0.000000 0.000000 0.000000 0.000000 0.000000 10.000000 
L_weapon_bone 0.000000 0.000000 0.000000 0.000000 0.000000 0.000000 10.000000 
L_front_hand01_01 0.000000 0.000000 0.000000 0.000000 0.000000 0.000000 10.000000 
L_front_hand02_01 0.000000 0.000000 0.000000 0.000000 0.000000 0.000000 10.000000 
L_front_hand03_01 0.000000 0.000000 0.000000 0.000000 0.000000 0.000000 10.000000 
L_front_hand01_02 0.000000 0.000000 0.000000 0.000000 0.000000 0.000000 10.000000 
L_front_hand02_02 0.000000 0.000000 0.000000 0.000000 0.000000 0.000000 10.000000 
L_front_hand03_02 0.000000 0.000000 0.000000 0.000000 0.000000 0.000000 10.000000 
R_forearm 0.000000 0.000000 0.000000 0.000000 0.000000 0.000000 10.000000 
R_front_hand 0.000000 0.000000 0.000000 0.000000 0.000000 0.000000 10.000000 
R_weapon_bone 0.000000 0.000000 0.000000 0.000000 0.000000 0.000000 10.000000 
R_front_hand01_01 0.000000 0.000000 0.000000 0.000000 0.000000 0.000000 10.000000 
R_front_hand02_01 0.000000 0.000000 0.000000 0.000000 0.000000 0.000000 10.000000 
R_front_hand03_01 0.000000 0.000000 0.000000 0.000000 0.000000 0.000000 10.000000 
R_front_hand01_02 0.000000 0.000000 0.000000 0.000000 0.000000 0.000000 10.000000 
R_front_hand02_02 0.000000 0.000000 0.000000 0.000000 0.000000 0.000000 10.000000 
R_front_hand03_02 0.000000 0.000000 0.000000 0.000000 0.000000 0.000000 10.000000 
null_rope01_connect 0.000000 0.000000 0.000000 0.000000 0.000000 0.000000 10.000000 
Rope1_Seg01 0.000000 0.000000 0.000000 0.000000 0.000000 0.000000 10.000000 
Rope1_Seg02 0.000000 0.000000 0.000000 0.000000 0.000000 0.000000 10.000000 
Rope1_Seg03 0.000000 0.000000 0.000000 0.000000 0.000000 0.000000 10.000000 
Rope1_Seg04 0.000000 0.000000 0.000000 0.000000 0.000000 0.000000 10.000000 
Rope1_Seg05 0.000000 0.000000 0.000000 0.000000 0.000000 0.000000 10.000000 
Rope1_Seg06 0.000000 0.000000 0.000000 0.000000 0.000000 0.000000 10.000000 
Rope1_Seg07 0.000000 0.000000 0.000000 0.000000 0.000000 0.000000 10.000000 
Rope1_Seg09 0.000000 0.000000 0.000000 0.000000 0.000000 0.000000 10.000000 
L_mid_hand01 0.000000 0.000000 0.000000 0.000000 0.000000 0.000000 10.000000 
L_mid_hand02 0.000000 0.000000 0.000000 0.000000 0.000000 0.000000 10.000000 
L_mid_hand03 0.000000 0.000000 0.000000 0.000000 0.000000 0.000000 10.000000 
null_rope02_connect 0.000000 0.000000 0.000000 0.000000 0.000000 0.000000 10.000000 
Rope2_Seg01 0.000000 0.000000 0.000000 0.000000 0.000000 0.000000 10.000000 
Rope2_Seg02 0.000000 0.000000 0.000000 0.000000 0.000000 0.000000 10.000000 
Rope2_Seg03 0.000000 0.000000 0.000000 0.000000 0.000000 0.000000 10.000000 
Rope2_Seg04 0.000000 0.000000 0.000000 0.000000 0.000000 0.000000 10.000000 
Rope2_Seg05 0.000000 0.000000 0.000000 0.000000 0.000000 0.000000 10.000000 
Rope2_Seg06 0.000000 0.000000 0.000000 0.000000 0.000000 0.000000 10.000000 
Rope2_Seg07 0.000000 0.000000 0.000000 0.000000 0.000000 0.000000 10.000000 
Rope2_Seg09 0.000000 0.000000 0.000000 0.000000 0.000000 0.000000 10.000000 
R_mid_hand01 0.000000 0.000000 0.000000 0.000000 0.000000 0.000000 10.000000 
R_mid_hand02 0.000000 0.000000 0.000000 0.000000 0.000000 0.000000 10.000000 
R_mid_hand03 0.000000 0.000000 0.000000 0.000000 0.000000 0.000000 10.000000 
spine02 0.000000 0.000000 0.000000 0.000000 0.000000 0.000000 10.000000 
spine03 0.000000 0.000000 0.000000 0.000000 0.000000 0.000000 10.000000 
pelvis 0.000000 0.000000 0.000000 0.000000 0.000000 0.000000 10.000000 
null_rope03_connect 0.000000 0.000000 0.000000 0.000000 0.000000 0.000000 10.000000 
null_rope04_connect 0.000000 0.000000 0.000000 0.000000 0.000000 0.000000 10.000000 
Rope3_Seg01 0.000000 0.000000 0.000000 0.000000 0.000000 0.000000 10.000000 
Rope3_Seg02 0.000000 0.000000 0.000000 0.000000 0.000000 0.000000 10.000000 
Rope3_Seg03 0.000000 0.000000 0.000000 0.000000 0.000000 0.000000 10.000000 
Rope3_Seg04 0.000000 0.000000 0.000000 0.000000 0.000000 0.000000 10.000000 
Rope3_Seg05 0.000000 0.000000 0.000000 0.000000 0.000000 0.000000 10.000000 
Rope3_Seg06 0.000000 0.000000 0.000000 0.000000 0.000000 0.000000 10.000000 
Rope3_Seg07 0.000000 0.000000 0.000000 0.000000 0.000000 0.000000 10.000000 
Rope3_Seg08 0.000000 0.000000 0.000000 0.000000 0.000000 0.000000 10.000000 
Rope3_Seg09 0.000000 0.000000 0.000000 0.000000 0.000000 0.000000 10.000000 
R_rear_hand01 0.000000 0.000000 0.000000 0.000000 0.000000 0.000000 10.000000 
R_rear_hand02 0.000000 0.000000 0.000000 0.000000 0.000000 0.000000 10.000000 
R_rear_hand03 0.000000 0.000000 0.000000 0.000000 0.000000 0.000000 10.000000 
Rope4_Seg01 0.000000 0.000000 0.000000 0.000000 0.000000 0.000000 10.000000 
Rope4_Seg02 0.000000 0.000000 0.000000 0.000000 0.000000 0.000000 10.000000 
Rope4_Seg03 0.000000 0.000000 0.000000 0.000000 0.000000 0.000000 10.000000 
Rope4_Seg04 0.000000 0.000000 0.000000 0.000000 0.000000 0.000000 10.000000 
Rope4_Seg05 0.000000 0.000000 0.000000 0.000000 0.000000 0.000000 10.000000 
Rope4_Seg06 0.000000 0.000000 0.000000 0.000000 0.000000 0.000000 10.000000 
Rope4_Seg07 0.000000 0.000000 0.000000 0.000000 0.000000 0.000000 10.000000 
Rope4_Seg08 0.000000 0.000000 0.000000 0.000000 0.000000 0.000000 10.000000 
Rope4_Seg09 0.000000 0.000000 0.000000 0.000000 0.000000 0.000000 10.000000 
L_rear_hand01 0.000000 0.000000 0.000000 0.000000 0.000000 0.000000 10.000000 
L_rear_hand02 0.000000 0.000000 0.000000 0.000000 0.000000 0.000000 10.000000 
L_rear_hand03 0.000000 0.000000 0.000000 0.000000 0.000000 0.000000 10.000000 
#Beginning of Data. Separated by tabs
#Fr	Tx	Ty	Tz	Rx	Ry	Rz	SF
[MASTER]
18 0.000000 0.000000 0.000000 0.001660 0.001660 0.001660 0.000000
19 0.000000 0.000000 0.000000 0.001660 0.001660 0.001660 0.000000
[root]
18 -17.622217 -7.588799 1440.328247 -91.740150 13.400836 -90.225014 1440.456055
19 -21.298939 -5.236825 1437.401489 -91.740158 13.400836 -90.225014 1437.568970
[chest]
18 -84.512650 -34.090519 0.000000 -2.117274 0.462005 -179.268204 91.129311
19 -84.512650 -34.090519 0.000000 -2.117274 0.462005 -179.268204 91.129311
[L_mid_tent01]
18 27.299511 22.177458 -249.918259 -9.471778 28.805712 49.020824 252.381134
19 27.299511 22.177458 -249.918259 -9.073949 28.509850 50.185310 252.381134
[R_mid_tent01]
18 23.228794 24.509907 226.238495 -175.255402 -30.162580 50.720249 228.744751
19 23.228794 24.509907 226.238495 -175.339249 -30.164602 51.141056 228.744751
[spine01]
18 -0.361383 -0.195265 0.000000 -0.000001 -0.000007 22.052340 0.410763
19 -0.361383 -0.195265 0.000000 -0.000001 -0.000007 22.052340 0.410763
[Bip01_Neck]
18 165.484543 71.581718 0.000119 175.896118 1.177290 24.871183 180.302734
19 165.484543 71.581718 0.000119 175.896118 1.177290 24.871183 180.302734
[L_humerus]
18 -13.983130 -135.272980 -120.471481 175.474304 58.687801 -118.474754 181.680161
19 -13.983130 -135.272980 -120.471481 175.474304 58.687801 -118.474754 181.680161
[R_humerus]
18 -13.983309 -135.273102 125.287651 174.588181 -51.786880 -99.934280 184.909012
19 -13.983309 -135.273102 125.287651 174.588181 -51.786880 -99.934280 184.909012
[weapon_bone]
18 235.964890 -300.705902 0.000000 0.000000 -89.951546 -128.212341 382.234833
19 235.964890 -300.705902 0.000000 0.000000 -89.951546 -128.212341 382.234833
[Bip01_Head]
18 163.817291 272.852325 22.822264 1.693473 4.424704 -42.711670 319.069519
19 163.817291 272.852325 22.822264 1.693472 4.424703 -42.711670 319.069519
[eye_left_bone]
18 -24.626970 125.451866 -64.772606 0.000000 -90.000000 -99.840431 143.318359
19 -24.626970 125.451866 -64.772606 0.000000 -90.000000 -99.840431 143.318359
[eye_right_bone]
18 -24.626970 125.451866 64.327362 0.000000 -89.965736 80.156380 143.117676
19 -24.626970 125.451866 64.327362 0.000000 -89.965736 80.156380 143.117676
[L_forearm]
18 322.776093 0.000000 -0.000119 0.000442 -0.002305 -111.718391 322.776093
19 322.776093 0.000000 -0.000119 0.000442 -0.002305 -111.718391 322.776093
[L_front_hand]
18 241.149185 -0.042021 -3.300071 -179.659958 -2.242151 -0.019832 241.171753
19 241.149185 -0.042021 -3.300071 -179.659958 -2.242151 -0.019832 241.171753
[L_weapon_bone]
18 156.183838 0.000000 0.000000 0.000014 0.000007 0.000001 156.183838
19 156.183838 0.000000 0.000000 0.000014 0.000007 0.000001 156.183838
[L_front_hand01_01]
18 86.095154 20.947098 -0.655860 -0.366594 -0.477154 75.385574 88.609184
19 86.095154 20.947098 -0.655860 -0.366594 -0.477154 75.385574 88.609184
[L_front_hand02_01]
18 86.935165 -11.437475 24.513514 154.399796 -59.883835 -61.369587 91.046425
19 86.935165 -11.437475 24.513514 154.399796 -59.883835 -61.369587 91.046425
[L_front_hand03_01]
18 86.637497 -14.123976 -20.424902 -153.913849 58.118122 -62.702866 90.126129
19 86.637497 -14.123976 -20.424902 -153.913849 58.118122 -62.702866 90.126129
[L_front_hand01_02]
18 71.020905 -0.000179 0.000030 0.000334 -0.002323 -106.379684 71.020905
19 71.020905 -0.000179 0.000030 0.000334 -0.002323 -106.379684 71.020905
[L_front_hand02_02]
18 71.020927 -0.000119 0.000060 0.000334 -0.002323 -106.379684 71.020927
19 71.020927 -0.000119 0.000060 0.000334 -0.002323 -106.379684 71.020927
[L_front_hand03_02]
18 71.020905 -0.000060 0.000060 0.000334 -0.002323 -106.379684 71.020905
19 71.020905 -0.000060 0.000060 0.000334 -0.002323 -106.379684 71.020905
[R_forearm]
18 322.776428 -0.000060 0.000030 0.211305 0.032976 -99.623016 322.776428
19 322.776428 -0.000060 0.000030 0.211305 0.032976 -99.623016 322.776428
[R_front_hand]
18 238.847015 -0.006795 2.210259 -0.270529 1.703932 2.322530 238.857239
19 238.847015 -0.006795 2.210259 -0.270529 1.703932 2.322530 238.857239
[R_weapon_bone]
18 155.664093 0.002503 -0.000030 0.003487 0.001180 -90.988930 155.664078
19 155.664093 0.002503 -0.000030 0.003487 0.001180 -90.988930 155.664078
[R_front_hand01_01]
18 87.624611 14.231146 22.918642 -154.633499 -59.950619 61.746044 91.683487
19 87.624611 14.231146 22.918642 -154.633499 -59.950619 61.746044 91.683487
[R_front_hand02_01]
18 89.356956 14.367283 -19.491137 154.602661 58.302849 63.744389 92.579636
19 89.356956 14.367283 -19.491137 154.602661 58.302849 63.744389 92.579636
[R_front_hand03_01]
18 87.286232 -22.307278 -0.143439 0.162155 -0.423168 -75.767921 90.091743
19 87.286232 -22.307278 -0.143439 0.162155 -0.423168 -75.767921 90.091743
[R_front_hand01_02]
18 71.020905 0.000060 0.000119 0.002323 -0.000334 106.381714 71.020905
19 71.020905 0.000060 0.000119 0.002323 -0.000334 106.381714 71.020905
[R_front_hand02_02]
18 71.020844 -0.000030 -0.000119 0.002323 -0.000334 106.381714 71.020836
19 71.020844 -0.000030 -0.000119 0.002323 -0.000334 106.381714 71.020836
[R_front_hand03_02]
18 71.020905 0.000000 0.000030 0.002323 -0.000334 106.381714 71.020905
19 71.020905 0.000000 0.000030 0.002323 -0.000334 106.381714 71.020905
[null_rope01_connect]
18 328.732483 0.000000 -0.000238 -172.220016 -58.155087 -162.533035 328.732483
19 328.732483 0.000000 -0.000238 -172.766235 -58.544449 -163.026901 328.732483
[Rope1_Seg01]
18 0.000000 0.000000 0.000000 -130.700165 54.083717 -119.506645 0.000000
19 0.000000 0.000000 0.000000 -134.287781 52.976444 -121.404472 0.000000
[Rope1_Seg02]
18 139.999863 -0.000179 0.000000 32.643944 -10.254665 -14.645520 139.999863
19 139.999863 -0.000179 0.000000 33.472618 -9.502069 -14.579842 139.999863
[Rope1_Seg03]
18 139.999924 0.000060 -0.000060 19.532148 -12.815531 -5.859091 139.999924
19 139.999924 0.000060 -0.000060 20.628895 -12.539586 -6.021350 139.999924
[Rope1_Seg04]
18 139.999924 -0.000060 -0.000119 12.389103 -13.072685 -2.404687 139.999924
19 139.999924 -0.000060 -0.000119 13.061796 -12.707699 -2.570904 139.999924
[Rope1_Seg05]
18 139.999832 0.000119 -0.000060 1.817223 -3.570806 0.969407 139.999832
19 139.999832 0.000119 -0.000060 2.094872 -3.967698 1.151636 139.999832
[Rope1_Seg06]
18 139.999954 0.000119 -0.000060 -3.109973 2.979181 1.945091 139.999954
19 139.999954 0.000119 -0.000060 -2.908150 2.053688 2.468299 139.999954
[Rope1_Seg07]
18 139.999985 0.000060 0.000000 -9.192665 9.564500 4.081831 139.999985
19 139.999985 0.000060 0.000000 -7.795032 7.268092 4.713143 139.999985
[Rope1_Seg09]
18 121.602913 0.000119 -0.000089 -89.793175 -1.359789 0.847147 121.602913
19 121.602913 0.000119 -0.000089 -89.793175 -1.359789 0.847147 121.602913
[L_mid_hand01]
18 103.859421 1.038730 8.195221 106.855484 -31.239275 -9.461397 104.187431
19 103.859421 1.038730 8.195221 106.855484 -31.239275 -9.461397 104.187431
[L_mid_hand02]
18 105.572853 -4.139662 -10.864139 -142.331345 25.752670 -28.774628 106.211075
19 105.572853 -4.139662 -10.864139 -142.331345 25.752670 -28.774628 106.211075
[L_mid_hand03]
18 104.641464 17.579376 -3.913581 -16.122810 9.734291 34.223598 106.179977
19 104.641464 17.579376 -3.913581 -16.122810 9.734291 34.223598 106.179977
[null_rope02_connect]
18 328.732849 0.000179 -0.000119 -162.338577 61.064392 -6.754720 328.732849
19 328.732849 0.000179 -0.000119 -162.606689 61.075184 -6.623302 328.732849
[Rope2_Seg01]
18 0.000000 0.000000 0.000000 175.443298 52.214806 -59.999546 0.000000
19 0.000000 0.000000 0.000000 176.868683 52.776009 -59.300728 0.000000
[Rope2_Seg02]
18 139.999741 -0.000060 -0.000119 -15.403233 2.020159 13.452847 139.999756
19 139.999741 -0.000060 -0.000119 -14.904779 3.033169 12.163669 139.999756
[Rope2_Seg03]
18 140.000107 0.000030 0.000000 -17.017508 -0.858611 22.516130 140.000107
19 140.000107 0.000030 0.000000 -17.823364 1.788221 20.294052 140.000107
[Rope2_Seg04]
18 139.999802 0.000000 -0.000060 -6.798797 -8.064611 16.135386 139.999802
19 139.999802 0.000000 -0.000060 -8.758913 -7.123681 17.386230 139.999802
[Rope2_Seg05]
18 139.999985 -0.000060 0.000119 4.602842 -4.669309 -10.290033 139.999985
19 139.999985 -0.000060 0.000119 4.710706 -8.955252 -7.238116 139.999985
[Rope2_Seg06]
18 139.999893 -0.000030 -0.000119 1.786815 -3.278575 -3.904943 139.999893
19 139.999893 -0.000030 -0.000119 1.266513 -4.954237 -1.998807 139.999893
[Rope2_Seg07]
18 139.999893 0.000060 -0.000060 0.792185 -2.212314 -1.740107 139.999893
19 139.999893 0.000060 -0.000060 0.438788 -3.047872 -0.623496 139.999893
[Rope2_Seg09]
18 121.338966 0.000089 -0.000060 33.793236 -1.359788 -0.847141 121.338966
19 121.338966 0.000089 -0.000060 33.793236 -1.359788 -0.847141 121.338966
[R_mid_hand01]
18 104.680779 11.144459 -10.335981 -41.523792 25.424656 28.595957 105.778534
19 104.680779 11.144459 -10.335981 -41.523792 25.424656 28.595957 105.778534
[R_mid_hand02]
18 104.070427 2.443552 8.231699 72.847389 -32.746803 10.013901 104.424065
19 104.070427 2.443552 8.231699 72.847389 -32.746803 10.013901 104.424065
[R_mid_hand03]
18 106.028137 -11.221827 -5.996406 -167.901306 10.259192 -37.009720 106.788818
19 106.028137 -11.221827 -5.996406 -167.901306 10.259192 -37.009720 106.788818
[spine02]
18 129.756927 0.001550 0.000119 0.360061 -4.044797 -12.915058 129.756927
19 129.756927 0.001550 0.000119 0.360061 -4.044797 -12.915058 129.756927
[spine03]
18 78.613846 0.087372 -4.898873 1.896495 3.831288 16.473045 78.766380
19 78.613846 0.087372 -4.898873 1.896495 3.831288 16.473045 78.766380
[pelvis]
18 169.435242 0.051022 0.000000 -0.060465 -0.180225 14.087930 169.435257
19 169.435242 0.051022 0.000000 -0.060465 -0.180225 14.087930 169.435257
[null_rope03_connect]
18 -1.257226 -2.466202 137.391083 -159.503860 -89.311867 -163.586563 137.418976
19 -1.257226 -2.466202 137.391083 -159.503860 -89.311867 -163.586563 137.418976
[null_rope04_connect]
18 -1.259640 -2.480268 -137.844437 -159.503860 -89.311867 -163.586563 137.872513
19 -1.259640 -2.480268 -137.844437 -159.503860 -89.311867 -163.586563 137.872513
[Rope3_Seg01]
18 0.000000 0.000000 0.000000 -144.554596 32.885448 -100.152771 0.000000
19 0.000000 0.000000 0.000000 -145.493698 32.022919 -102.853172 0.000000
[Rope3_Seg02]
18 139.999924 -0.000119 0.000060 1.530173 -0.620255 -6.851280 139.999924
19 139.999924 -0.000119 0.000060 1.406188 -1.663280 -7.290153 139.999924
[Rope3_Seg03]
18 139.999924 -0.000119 0.000119 1.474637 -1.371510 -10.189349 139.999924
19 139.999924 -0.000119 0.000119 1.379890 -2.835291 -10.685070 139.999924
[Rope3_Seg04]
18 139.999924 0.000119 0.000000 1.234632 -5.654792 -23.405729 139.999924
19 139.999924 0.000119 0.000000 1.694742 -8.237274 -23.394068 139.999924
[Rope3_Seg05]
18 139.999924 -0.000238 0.000060 0.562082 6.872444 8.654728 139.999924
19 139.999924 -0.000238 0.000060 0.200219 5.956560 5.908011 139.999924
[Rope3_Seg06]
18 139.999893 -0.000119 -0.000060 1.913455 11.034591 23.200134 139.999893
19 139.999893 -0.000119 -0.000060 2.804187 12.885986 22.892721 139.999893
[Rope3_Seg07]
18 139.999771 0.000060 -0.000119 0.385899 4.725421 8.454928 139.999771
19 139.999771 0.000060 -0.000119 0.910430 5.624973 8.477020 139.999771
[Rope3_Seg08]
18 139.999985 -0.000060 0.000000 0.263133 2.634330 4.693830 139.999985
19 139.999985 -0.000060 0.000000 0.660485 3.226864 4.751638 139.999985
[Rope3_Seg09]
18 90.185997 -0.000179 -0.000060 89.793228 -1.359877 -0.847183 90.185997
19 90.185997 -0.000179 -0.000060 89.793228 -1.359877 -0.847183 90.185997
[R_rear_hand01]
18 103.366196 -6.073594 -10.757982 -161.551193 16.666374 -30.088671 104.101845
19 103.366196 -6.073594 -10.757982 -161.551193 16.666374 -30.088671 104.101845
[R_rear_hand02]
18 100.509819 12.039542 -7.992327 -34.280552 19.289745 28.875523 101.543350
19 100.509819 12.039542 -7.992327 -34.280552 19.289745 28.875523 101.543350
[R_rear_hand03]
18 101.539970 5.215704 5.435467 83.366440 -30.933914 7.284830 101.819031
19 101.539970 5.215704 5.435467 83.366440 -30.933914 7.284830 101.819031
[Rope4_Seg01]
18 0.000010 0.000038 -0.000114 46.043980 21.352774 -107.017128 0.000121
19 0.000010 0.000038 -0.000114 44.808762 21.339800 -110.422729 0.000121
[Rope4_Seg02]
18 139.999985 0.000060 0.000119 0.515465 9.693046 2.487588 139.999985
19 139.999985 0.000060 0.000119 0.491225 10.341784 3.761300 139.999985
[Rope4_Seg03]
18 139.999924 0.000000 -0.000238 1.358549 12.747726 3.587940 139.999924
19 139.999924 0.000000 -0.000238 1.241605 13.856688 5.316022 139.999924
[Rope4_Seg04]
18 139.999985 0.000000 0.000119 3.880019 19.715870 6.570274 139.999985
19 139.999985 0.000000 0.000119 3.421263 21.286854 9.231542 139.999985
[Rope4_Seg05]
18 139.999802 -0.000060 -0.000119 1.250991 -6.001948 -4.354027 139.999802
19 139.999802 -0.000060 -0.000119 1.551204 -4.499905 -3.891261 139.999802
[Rope4_Seg06]
18 139.999924 0.000000 0.000060 1.243660 -20.427155 -9.419064 139.999924
19 139.999924 0.000000 0.000060 2.124185 -20.383324 -10.959509 139.999924
[Rope4_Seg07]
18 139.999802 0.000000 0.000000 0.434890 -8.309072 -4.186267 139.999802
19 139.999802 0.000000 0.000000 0.579040 -8.520992 -4.749316 139.999802
[Rope4_Seg08]
18 139.999924 0.000000 0.000119 -1.352812 -4.667819 -2.359045 139.999924
19 139.999924 0.000000 0.000119 -1.315078 -4.734899 -2.642093 139.999924
[Rope4_Seg09]
18 90.185791 0.000060 0.000060 -135.617828 2.228885 0.850567 90.185791
19 90.185791 0.000060 0.000060 -135.617828 2.228885 0.850567 90.185791
[L_rear_hand01]
18 101.696655 -8.392275 -7.654577 -34.454281 -18.946800 151.655121 102.329041
19 101.696655 -8.392275 -7.654577 -34.454281 -18.946800 151.655121 102.329041
[L_rear_hand02]
18 102.726799 -1.568258 5.773216 83.407906 30.330435 172.796509 102.900848
19 102.726799 -1.568258 5.773216 83.407906 30.330435 172.796509 102.900848
[L_rear_hand03]
18 104.552910 9.721220 -10.420293 -161.379868 -16.473232 -150.512238 105.519653
19 104.552910 9.721220 -10.420293 -161.379868 -16.473232 -150.512238 105.519653
